<?xml version="1.0" encoding="UTF-8"?>
<!DOCTYPE svg PUBLIC "-//W3C//DTD SVG 1.1//EN" "http://www.w3.org/Graphics/SVG/1.1/DTD/svg11.dtd">
<!-- Creator: CorelDRAW 2020 (64-Bit) -->
<svg xmlns="http://www.w3.org/2000/svg" xml:space="preserve" width="1350px" height="1350px" version="1.1" style="shape-rendering:geometricPrecision; text-rendering:geometricPrecision; image-rendering:optimizeQuality; fill-rule:evenodd; clip-rule:evenodd"
viewBox="0 0 1350 1350"
 xmlns:xlink="http://www.w3.org/1999/xlink"
 xmlns:xodm="http://www.corel.com/coreldraw/odm/2003">
 <defs>
  <style type="text/css">
   <![CDATA[
    .fil1 {fill:#1D629E}
    .fil0 {fill:#2274BD;fill-rule:nonzero}
   ]]>
  </style>
 </defs>
 <g id="Capa_x0020_1">
  <metadata id="CorelCorpID_0Corel-Layer"/>
  <path class="fil0" d="M486.43 860.74l0 -263.75 -42.49 0 0 -44.04 120.65 0 92.57 241.29 93.53 -241.29 121.77 0 0 44.04 -42.48 0 0 263.75 42.48 0 0 44.05 -132.65 0 0 -44.05 41.98 0 0 -263.75 -121.34 311.42 -10.37 0 -120.13 -311.42 0 263.75 38.87 0 0 44.05 -124.88 0 0 -44.05 42.49 0zm453.4 0l0 -263.75 -48.19 0 0 -44.04 142.84 0c29.88,0 53.54,2.33 71.07,6.99 17.54,4.58 32.04,14.43 43.53,29.37 11.49,14.85 17.18,33.5 17.18,55.79 0,46.54 -24.09,75.82 -72.36,87.83l62.09 127.81 42.92 0 0 44.05 -76.43 0 -79.8 -164.27 -49.48 0 0 120.22 45.08 0 0 44.05 -146.64 0 0 -44.05 48.19 0zm53.37 -164.26l41.36 0c20.04,0 34.81,-1.29 44.31,-3.88 9.5,-2.68 17.36,-7.95 23.4,-15.98 6.05,-8.03 9.07,-18.83 9.07,-32.3 0,-11.49 -3.11,-21.16 -9.24,-29.1 -6.13,-7.95 -13.65,-12.96 -22.71,-15.03 -8.98,-2.16 -22.72,-3.2 -41.29,-3.2l-44.9 0 0 99.49z"/>
  <path class="fil1" d="M199.47 912.31c-24.07,-69.86 -36.1,-104.8 -36.1,-104.8 48.99,-9.7 72.18,-29.95 69.57,-60.76 4.41,-23.24 -23.48,-40.56 -83.67,-51.97 1.04,-57.08 11.02,-103.17 29.95,-138.26 61.29,10.34 94.76,4.17 100.39,-18.49 6.77,-22.34 -10.55,-51.41 -51.95,-87.19 28.63,-41.05 59.14,-74.22 91.55,-99.52 44.97,38.73 76.1,49.88 93.35,33.47 19.5,-13.89 20.39,-47.06 2.65,-99.53 39.17,-21.74 82.03,-35.54 128.57,-41.39 15.69,50.69 35.95,78.59 60.78,83.67 27.87,4.45 47.55,-25.2 58.99,-88.95 41.95,-3.33 83.35,3.72 124.19,21.13 -10.6,57.19 -2.97,91.83 22.9,103.93 20.52,9.52 48.41,-6.93 83.66,-49.33 27.38,14.45 47.93,30.03 61.64,46.7 -77.5,91.58 -116.25,137.37 -116.25,137.37 -50.54,-54.75 -125.11,-81.76 -223.69,-81.02 -269.01,29.91 -355.63,289.4 -225.53,487.87 -127.34,4.71 -191,7.07 -191,7.07z"/>
  <path class="fil0" d="M230.49 1025.47c-3.33,1.76 -7.49,2.64 -12.46,2.64 -6.42,0 -11.56,-2.06 -15.42,-6.2 -3.86,-4.14 -5.8,-9.58 -5.8,-16.31 0,-7.22 2.18,-13.06 6.52,-17.52 4.34,-4.45 9.85,-6.68 16.53,-6.68 4.28,0 7.83,0.62 10.63,1.87l0 5.61c-3.22,-1.8 -6.79,-2.71 -10.7,-2.71 -5.18,0 -9.37,1.74 -12.6,5.21 -3.21,3.46 -4.83,8.1 -4.83,13.89 0,5.51 1.51,9.89 4.52,13.16 3.01,3.27 6.96,4.91 11.85,4.91 4.53,0 8.45,-1.01 11.76,-3.04l0 5.17zm32.66 1.87l-23.42 0 0 -45.17 5.29 0 0 40.39 18.13 0 0 4.78zm16.63 -45.17l0 4.52 -4.39 0 0 36.13 4.39 0 0 4.52 -14.07 0 0 -4.52 4.39 0 0 -36.13 -4.39 0 0 -4.52 14.07 0zm53.56 45.17l-5.29 0 0 -30.31c0,-2.38 0.16,-5.32 0.47,-8.78l-0.13 0c-0.51,2.04 -0.96,3.49 -1.35,4.38l-15.45 34.71 -2.58 0 -15.41 -34.46c-0.44,-1.01 -0.89,-2.54 -1.35,-4.63l-0.13 0c0.16,1.81 0.25,4.76 0.25,8.85l0 30.24 -5.1 0 0 -45.17 6.99 0 13.85 31.5c1.08,2.41 1.76,4.21 2.09,5.42l0.18 0c0.9,-2.48 1.62,-4.33 2.17,-5.55l14.14 -31.37 6.65 0 0 45.17zm46.87 0l-5.87 0 -4.78 -12.65 -19.21 0 -4.53 12.65 -5.87 0 17.36 -45.17 5.48 0 17.42 45.17zm-12.37 -17.42l-7.09 -19.27c-0.24,-0.63 -0.49,-1.63 -0.73,-2.99l-0.14 0c-0.23,1.27 -0.48,2.28 -0.75,3.03l-7.02 19.23 15.73 0zm45.69 -22.97l-13.03 0 0 40.39 -5.29 0 0 -40.39 -13.03 0 0 -4.78 31.35 0 0 4.78zm16.78 -4.78l0 4.52 -4.39 0 0 36.13 4.39 0 0 4.52 -14.07 0 0 -4.52 4.39 0 0 -36.13 -4.39 0 0 -4.52 14.07 0zm36.98 1.26l-26.48 39.13 25.84 0 0 4.78 -33.75 0 0 -1.49 26.26 -38.9 -24.13 0 0 -4.78 32.26 0 0 1.26zm42.32 43.91l-5.88 0 -4.77 -12.65 -19.22 0 -4.52 12.65 -5.88 0 17.36 -45.17 5.48 0 17.43 45.17zm-12.37 -17.42l-7.1 -19.27c-0.24,-0.63 -0.48,-1.63 -0.73,-2.99l-0.14 0c-0.22,1.27 -0.47,2.28 -0.74,3.03l-7.02 19.23 15.73 0zm49.69 15.55c-3.33,1.76 -7.5,2.64 -12.46,2.64 -6.42,0 -11.56,-2.06 -15.42,-6.2 -3.86,-4.14 -5.8,-9.58 -5.8,-16.31 0,-7.22 2.17,-13.06 6.52,-17.52 4.34,-4.45 9.85,-6.68 16.52,-6.68 4.28,0 7.83,0.62 10.64,1.87l0 5.61c-3.23,-1.8 -6.8,-2.71 -10.7,-2.71 -5.18,0 -9.38,1.74 -12.6,5.21 -3.22,3.46 -4.83,8.1 -4.83,13.89 0,5.51 1.5,9.89 4.52,13.16 3.01,3.27 6.95,4.91 11.85,4.91 4.52,0 8.45,-1.01 11.76,-3.04l0 5.17zm18.91 -43.3l0 4.52 -4.38 0 0 36.13 4.38 0 0 4.52 -14.06 0 0 -4.52 4.39 0 0 -36.13 -4.39 0 0 -4.52 14.06 0zm25.69 45.94c-6.39,0 -11.52,-2.11 -15.37,-6.33 -3.86,-4.23 -5.79,-9.72 -5.79,-16.49 0,-7.27 1.97,-13.07 5.89,-17.4 3.93,-4.33 9.27,-6.49 16.04,-6.49 6.23,0 11.26,2.1 15.06,6.3 3.82,4.2 5.72,9.7 5.72,16.49 0,7.37 -1.95,13.2 -5.86,17.49 -3.9,4.29 -9.13,6.43 -15.69,6.43zm0.39 -41.94c-4.75,0 -8.6,1.71 -11.56,5.14 -2.96,3.42 -4.44,7.93 -4.44,13.49 0,5.57 1.44,10.05 4.33,13.45 2.89,3.39 6.65,5.09 11.28,5.09 4.96,0 8.86,-1.62 11.73,-4.85 2.84,-3.24 4.28,-7.77 4.28,-13.59 0,-5.97 -1.39,-10.59 -4.17,-13.84 -2.76,-3.26 -6.59,-4.89 -11.45,-4.89zm7.87 -18.51l-8.26 10.32 -4 0 7.04 -10.32 5.22 0zm58.57 59.68l-6.47 0 -23.24 -36c-0.59,-0.91 -1.07,-1.85 -1.45,-2.83l-0.18 0c0.16,0.95 0.25,3.03 0.25,6.2l0 32.63 -5.29 0 0 -45.17 6.85 0 22.61 35.44c0.95,1.47 1.55,2.47 1.83,3.02l0.12 0c-0.21,-1.3 -0.32,-3.52 -0.32,-6.65l0 -31.81 5.29 0 0 45.17zm58.91 -45.17l-14.9 28.48 0 16.69 -5.29 0 0 -16.57 -14.52 -28.6 6 0 10.12 20.41c0.13,0.25 0.49,1.18 1.11,2.78l0.09 0c0.21,-0.72 0.61,-1.65 1.2,-2.78l10.58 -20.41 5.61 0zm56.37 45.17l-6.32 0 -7.56 -12.67c-0.69,-1.18 -1.36,-2.18 -2.01,-3.01 -0.65,-0.83 -1.32,-1.51 -2,-2.03 -0.68,-0.53 -1.42,-0.92 -2.21,-1.15 -0.78,-0.25 -1.67,-0.37 -2.65,-0.37l-4.35 0 0 19.23 -5.29 0 0 -45.17 13.48 0c1.98,0 3.8,0.25 5.48,0.75 1.67,0.49 3.12,1.23 4.34,2.24 1.23,1.01 2.2,2.26 2.88,3.77 0.7,1.5 1.05,3.25 1.05,5.27 0,1.58 -0.24,3.02 -0.71,4.33 -0.48,1.31 -1.15,2.48 -2.02,3.5 -0.88,1.04 -1.93,1.91 -3.15,2.64 -1.24,0.72 -2.63,1.28 -4.15,1.68l0 0.13c0.75,0.33 1.4,0.72 1.95,1.15 0.56,0.43 1.09,0.94 1.59,1.52 0.51,0.59 1.01,1.26 1.5,2 0.49,0.76 1.04,1.62 1.65,2.61l8.5 13.58zm-27.1 -40.39l0 16.39 7.18 0c1.33,0 2.55,-0.21 3.68,-0.61 1.12,-0.39 2.1,-0.96 2.92,-1.71 0.81,-0.75 1.46,-1.66 1.92,-2.74 0.46,-1.08 0.69,-2.3 0.69,-3.64 0,-2.42 -0.79,-4.3 -2.35,-5.66 -1.57,-1.35 -3.82,-2.03 -6.79,-2.03l-7.25 0zm57.24 40.39l-23.94 0 0 -45.17 22.91 0 0 4.78 -17.62 0 0 15.03 16.33 0 0 4.77 -16.33 0 0 15.81 18.65 0 0 4.78zm31.6 -40.39l-17.61 0 0 15.61 16.26 0 0 4.78 -16.26 0 0 20 -5.29 0 0 -45.17 22.9 0 0 4.78zm41 40.39l-6.33 0 -7.56 -12.67c-0.69,-1.18 -1.35,-2.18 -2.01,-3.01 -0.64,-0.83 -1.31,-1.51 -2,-2.03 -0.68,-0.53 -1.42,-0.92 -2.2,-1.15 -0.79,-0.25 -1.67,-0.37 -2.66,-0.37l-4.34 0 0 19.23 -5.29 0 0 -45.17 13.48 0c1.98,0 3.8,0.25 5.47,0.75 1.67,0.49 3.12,1.23 4.35,2.24 1.22,1.01 2.19,2.26 2.88,3.77 0.7,1.5 1.04,3.25 1.04,5.27 0,1.58 -0.23,3.02 -0.71,4.33 -0.47,1.31 -1.15,2.48 -2.02,3.5 -0.87,1.04 -1.92,1.91 -3.15,2.64 -1.23,0.72 -2.62,1.28 -4.15,1.68l0 0.13c0.75,0.33 1.41,0.72 1.96,1.15 0.56,0.43 1.08,0.94 1.59,1.52 0.5,0.59 1.01,1.26 1.49,2 0.5,0.76 1.05,1.62 1.66,2.61l8.5 13.58zm-27.1 -40.39l0 16.39 7.18 0c1.32,0 2.55,-0.21 3.68,-0.61 1.12,-0.39 2.09,-0.96 2.91,-1.71 0.82,-0.75 1.46,-1.66 1.93,-2.74 0.46,-1.08 0.68,-2.3 0.68,-3.64 0,-2.42 -0.78,-4.3 -2.34,-5.66 -1.57,-1.35 -3.83,-2.03 -6.8,-2.03l-7.24 0zm42.98 -4.78l0 4.52 -4.39 0 0 36.13 4.39 0 0 4.52 -14.07 0 0 -4.52 4.39 0 0 -36.13 -4.39 0 0 -4.52 14.07 0zm41.24 42.09c-4.54,2.57 -9.57,3.85 -15.11,3.85 -6.45,0 -11.66,-2.07 -15.64,-6.24 -3.98,-4.16 -5.96,-9.66 -5.96,-16.51 0,-7 2.21,-12.74 6.63,-17.23 4.42,-4.48 10.01,-6.73 16.8,-6.73 4.91,0 9.04,0.8 12.37,2.39l0 5.87c-3.65,-2.33 -7.97,-3.49 -12.97,-3.49 -5.06,0 -9.2,1.75 -12.44,5.24 -3.23,3.48 -4.85,8 -4.85,13.55 0,5.72 1.51,10.2 4.51,13.47 3,3.27 7.06,4.91 12.2,4.91 3.53,0 6.59,-0.7 9.17,-2.1l0 -12.68 -9.88 0 0 -4.77 15.17 0 0 20.47zm34.45 3.08l-23.94 0 0 -45.17 22.91 0 0 4.78 -17.62 0 0 15.03 16.33 0 0 4.77 -16.33 0 0 15.81 18.65 0 0 4.78zm41.09 0l-6.32 0 -7.56 -12.67c-0.69,-1.18 -1.36,-2.18 -2.02,-3.01 -0.64,-0.83 -1.31,-1.51 -2,-2.03 -0.67,-0.53 -1.42,-0.92 -2.2,-1.15 -0.78,-0.25 -1.67,-0.37 -2.66,-0.37l-4.34 0 0 19.23 -5.29 0 0 -45.17 13.48 0c1.98,0 3.8,0.25 5.48,0.75 1.66,0.49 3.12,1.23 4.34,2.24 1.23,1.01 2.19,2.26 2.88,3.77 0.7,1.5 1.05,3.25 1.05,5.27 0,1.58 -0.24,3.02 -0.71,4.33 -0.48,1.31 -1.15,2.48 -2.03,3.5 -0.87,1.04 -1.92,1.91 -3.15,2.64 -1.23,0.72 -2.62,1.28 -4.15,1.68l0 0.13c0.76,0.33 1.41,0.72 1.96,1.15 0.56,0.43 1.09,0.94 1.59,1.52 0.51,0.59 1.01,1.26 1.5,2 0.49,0.76 1.04,1.62 1.65,2.61l8.5 13.58zm-27.1 -40.39l0 16.39 7.18 0c1.33,0 2.55,-0.21 3.68,-0.61 1.12,-0.39 2.1,-0.96 2.91,-1.71 0.82,-0.75 1.47,-1.66 1.93,-2.74 0.46,-1.08 0.69,-2.3 0.69,-3.64 0,-2.42 -0.79,-4.3 -2.35,-5.66 -1.57,-1.35 -3.83,-2.03 -6.79,-2.03l-7.25 0zm68.3 40.39l-5.87 0 -4.77 -12.65 -19.22 0 -4.52 12.65 -5.88 0 17.36 -45.17 5.48 0 17.42 45.17zm-12.36 -17.42l-7.1 -19.27c-0.24,-0.63 -0.48,-1.63 -0.73,-2.99l-0.14 0c-0.23,1.27 -0.47,2.28 -0.74,3.03l-7.02 19.23 15.73 0zm49.69 15.55c-3.33,1.76 -7.5,2.64 -12.46,2.64 -6.42,0 -11.56,-2.06 -15.42,-6.2 -3.86,-4.14 -5.8,-9.58 -5.8,-16.31 0,-7.22 2.17,-13.06 6.52,-17.52 4.34,-4.45 9.85,-6.68 16.52,-6.68 4.28,0 7.83,0.62 10.64,1.87l0 5.61c-3.23,-1.8 -6.8,-2.71 -10.7,-2.71 -5.18,0 -9.38,1.74 -12.6,5.21 -3.22,3.46 -4.83,8.1 -4.83,13.89 0,5.51 1.5,9.89 4.51,13.16 3.02,3.27 6.96,4.91 11.86,4.91 4.52,0 8.45,-1.01 11.76,-3.04l0 5.17zm18.91 -43.3l0 4.52 -4.38 0 0 36.13 4.38 0 0 4.52 -14.06 0 0 -4.52 4.39 0 0 -36.13 -4.39 0 0 -4.52 14.06 0zm25.69 45.94c-6.39,0 -11.52,-2.11 -15.37,-6.33 -3.86,-4.23 -5.79,-9.72 -5.79,-16.49 0,-7.27 1.97,-13.07 5.89,-17.4 3.93,-4.33 9.27,-6.49 16.04,-6.49 6.23,0 11.26,2.1 15.06,6.3 3.82,4.2 5.72,9.7 5.72,16.49 0,7.37 -1.95,13.2 -5.86,17.49 -3.9,4.29 -9.13,6.43 -15.69,6.43zm0.39 -41.94c-4.75,0 -8.6,1.71 -11.56,5.14 -2.96,3.42 -4.44,7.93 -4.44,13.49 0,5.57 1.44,10.05 4.33,13.45 2.89,3.39 6.65,5.09 11.28,5.09 4.96,0 8.86,-1.62 11.72,-4.85 2.85,-3.24 4.29,-7.77 4.29,-13.59 0,-5.97 -1.39,-10.59 -4.17,-13.84 -2.76,-3.26 -6.59,-4.89 -11.45,-4.89zm7.87 -18.51l-8.26 10.32 -4 0 7.04 -10.32 5.22 0zm58.57 59.68l-6.47 0 -23.24 -36c-0.59,-0.91 -1.07,-1.85 -1.45,-2.83l-0.18 0c0.16,0.95 0.25,3.03 0.25,6.2l0 32.63 -5.29 0 0 -45.17 6.85 0 22.61 35.44c0.95,1.47 1.55,2.47 1.83,3.02l0.12 0c-0.21,-1.3 -0.32,-3.52 -0.32,-6.65l0 -31.81 5.29 0 0 45.17zm-757.61 85.82l-23.94 0 0 -45.17 22.9 0 0 4.78 -17.61 0 0 15.03 16.32 0 0 4.78 -16.32 0 0 15.8 18.65 0 0 4.78zm32.11 0l-23.42 0 0 -45.17 5.29 0 0 40.39 18.13 0 0 4.78zm30.89 0l-23.94 0 0 -45.17 22.91 0 0 4.78 -17.62 0 0 15.03 16.33 0 0 4.78 -16.33 0 0 15.8 18.65 0 0 4.78zm39.41 -1.87c-3.34,1.76 -7.5,2.64 -12.46,2.64 -6.42,0 -11.56,-2.06 -15.42,-6.2 -3.86,-4.14 -5.8,-9.58 -5.8,-16.3 0,-7.23 2.17,-13.07 6.52,-17.53 4.34,-4.45 9.85,-6.68 16.52,-6.68 4.28,0 7.83,0.62 10.64,1.87l0 5.61c-3.23,-1.8 -6.8,-2.7 -10.7,-2.7 -5.18,0 -9.38,1.73 -12.6,5.2 -3.22,3.46 -4.83,8.1 -4.83,13.89 0,5.51 1.5,9.9 4.51,13.16 3.02,3.27 6.96,4.91 11.86,4.91 4.52,0 8.45,-1.01 11.76,-3.03l0 5.16zm35.95 -38.52l-13.04 0 0 40.39 -5.29 0 0 -40.39 -13.03 0 0 -4.78 31.36 0 0 4.78zm39.48 40.39l-6.32 0 -7.56 -12.67c-0.69,-1.18 -1.35,-2.18 -2.01,-3.01 -0.65,-0.83 -1.31,-1.51 -2,-2.03 -0.68,-0.53 -1.42,-0.92 -2.21,-1.15 -0.78,-0.25 -1.66,-0.37 -2.65,-0.37l-4.35 0 0 19.23 -5.29 0 0 -45.17 13.49 0c1.98,0 3.8,0.25 5.47,0.75 1.67,0.49 3.12,1.23 4.35,2.24 1.22,1.02 2.19,2.26 2.88,3.77 0.7,1.5 1.04,3.26 1.04,5.27 0,1.58 -0.24,3.02 -0.71,4.33 -0.47,1.31 -1.15,2.48 -2.02,3.51 -0.87,1.03 -1.92,1.9 -3.15,2.63 -1.24,0.72 -2.62,1.28 -4.15,1.68l0 0.13c0.75,0.33 1.41,0.72 1.96,1.15 0.55,0.43 1.08,0.94 1.59,1.52 0.5,0.6 1.01,1.26 1.49,2 0.5,0.76 1.04,1.62 1.66,2.61l8.49 13.58zm-27.1 -40.39l0 16.39 7.19 0c1.32,0 2.55,-0.21 3.68,-0.6 1.11,-0.4 2.09,-0.97 2.91,-1.71 0.82,-0.76 1.46,-1.67 1.92,-2.75 0.47,-1.08 0.69,-2.3 0.69,-3.64 0,-2.42 -0.78,-4.3 -2.34,-5.66 -1.57,-1.35 -3.83,-2.03 -6.8,-2.03l-7.25 0zm51.5 41.16c-6.4,0 -11.52,-2.11 -15.38,-6.33 -3.86,-4.23 -5.78,-9.72 -5.78,-16.49 0,-7.27 1.97,-13.07 5.89,-17.39 3.93,-4.34 9.27,-6.5 16.04,-6.5 6.23,0 11.25,2.1 15.06,6.3 3.82,4.21 5.72,9.7 5.72,16.49 0,7.37 -1.96,13.2 -5.86,17.49 -3.9,4.29 -9.13,6.43 -15.69,6.43zm0.39 -41.93c-4.75,0 -8.6,1.7 -11.56,5.13 -2.96,3.42 -4.44,7.93 -4.44,13.49 0,5.57 1.44,10.05 4.33,13.45 2.88,3.39 6.65,5.09 11.28,5.09 4.96,0 8.86,-1.62 11.72,-4.85 2.85,-3.24 4.28,-7.76 4.28,-13.59 0,-5.97 -1.38,-10.58 -4.16,-13.84 -2.76,-3.26 -6.59,-4.88 -11.45,-4.88zm76.12 41.16l-5.29 0 0 -30.3c0,-2.39 0.16,-5.33 0.47,-8.79l-0.13 0c-0.5,2.04 -0.95,3.5 -1.35,4.38l-15.44 34.71 -2.58 0 -15.41 -34.45c-0.44,-1.02 -0.9,-2.55 -1.36,-4.64l-0.13 0c0.17,1.81 0.25,4.76 0.25,8.85l0 30.24 -5.1 0 0 -45.17 6.99 0 13.85 31.5c1.08,2.41 1.77,4.22 2.09,5.42l0.18 0c0.91,-2.48 1.63,-4.33 2.18,-5.55l14.14 -31.37 6.64 0 0 45.17zm35.81 0l-23.94 0 0 -45.17 22.91 0 0 4.78 -17.62 0 0 15.03 16.33 0 0 4.78 -16.33 0 0 15.8 18.65 0 0 4.78zm39.41 -1.87c-3.33,1.76 -7.5,2.64 -12.46,2.64 -6.42,0 -11.56,-2.06 -15.42,-6.2 -3.86,-4.14 -5.8,-9.58 -5.8,-16.3 0,-7.23 2.17,-13.07 6.52,-17.53 4.34,-4.45 9.85,-6.68 16.52,-6.68 4.28,0 7.83,0.62 10.64,1.87l0 5.61c-3.23,-1.8 -6.8,-2.7 -10.7,-2.7 -5.18,0 -9.38,1.73 -12.6,5.2 -3.22,3.46 -4.83,8.1 -4.83,13.89 0,5.51 1.5,9.9 4.52,13.16 3.01,3.27 6.95,4.91 11.85,4.91 4.52,0 8.45,-1.01 11.76,-3.03l0 5.16zm44.24 1.87l-5.87 0 -4.78 -12.65 -19.21 0 -4.53 12.65 -5.87 0 17.35 -45.17 5.49 0 17.42 45.17zm-12.37 -17.42l-7.09 -19.27c-0.24,-0.63 -0.49,-1.63 -0.74,-2.99l-0.14 0c-0.22,1.27 -0.47,2.28 -0.74,3.03l-7.02 19.23 15.73 0zm-1.28 -42.26l-8.26 10.32 -4 0 7.04 -10.32 5.22 0zm56.65 59.68l-6.47 0 -23.24 -36c-0.59,-0.91 -1.08,-1.85 -1.45,-2.83l-0.18 0c0.16,0.96 0.24,3.03 0.24,6.2l0 32.63 -5.29 0 0 -45.17 6.85 0 22.62 35.44c0.94,1.47 1.54,2.47 1.82,3.02l0.12 0c-0.2,-1.3 -0.31,-3.52 -0.31,-6.65l0 -31.81 5.29 0 0 45.17zm21.55 -45.17l0 4.52 -4.39 0 0 36.13 4.39 0 0 4.52 -14.06 0 0 -4.52 4.38 0 0 -36.13 -4.38 0 0 -4.52 14.06 0zm38.21 43.3c-3.34,1.76 -7.5,2.64 -12.47,2.64 -6.41,0 -11.56,-2.06 -15.42,-6.2 -3.86,-4.14 -5.79,-9.58 -5.79,-16.3 0,-7.23 2.17,-13.07 6.51,-17.53 4.35,-4.45 9.85,-6.68 16.53,-6.68 4.28,0 7.83,0.62 10.64,1.87l0 5.61c-3.23,-1.8 -6.8,-2.7 -10.7,-2.7 -5.19,0 -9.38,1.73 -12.6,5.2 -3.22,3.46 -4.83,8.1 -4.83,13.89 0,5.51 1.5,9.9 4.51,13.16 3.01,3.27 6.96,4.91 11.85,4.91 4.53,0 8.46,-1.01 11.77,-3.03l0 5.16zm44.24 1.87l-5.88 0 -4.77 -12.65 -19.22 0 -4.52 12.65 -5.87 0 17.35 -45.17 5.49 0 17.42 45.17zm-12.37 -17.42l-7.1 -19.27c-0.23,-0.63 -0.48,-1.63 -0.73,-2.99l-0.14 0c-0.22,1.27 -0.47,2.28 -0.74,3.03l-7.02 19.23 15.73 0z"/>
 </g>
</svg>
